<mxfile host="app.diagrams.net" agent="Mozilla/5.0 (Windows NT 10.0; Win64; x64) AppleWebKit/537.36 (KHTML, like Gecko) Chrome/141.0.0.0 Safari/537.36" version="28.2.8">
  <diagram name="Page-1" id="Luo74aaX56rlVdYKv0m4">
    <mxGraphModel dx="2172" dy="2976" grid="1" gridSize="10" guides="1" tooltips="1" connect="1" arrows="1" fold="1" page="1" pageScale="1" pageWidth="827" pageHeight="1169" math="0" shadow="0">
      <root>
        <mxCell id="0" />
        <mxCell id="1" parent="0" />
        <mxCell id="MY-tYENC7k9GPu_FFXqe-2" value="Hakaton" style="rounded=0;whiteSpace=wrap;html=1;" parent="1" vertex="1">
          <mxGeometry x="350" y="310" width="120" height="60" as="geometry" />
        </mxCell>
        <mxCell id="MY-tYENC7k9GPu_FFXqe-3" value="Ime" style="ellipse;whiteSpace=wrap;html=1;" parent="1" vertex="1">
          <mxGeometry x="190" y="190" width="120" height="80" as="geometry" />
        </mxCell>
        <mxCell id="MY-tYENC7k9GPu_FFXqe-4" value="&lt;u&gt;HackathonID&lt;/u&gt;" style="ellipse;whiteSpace=wrap;html=1;" parent="1" vertex="1">
          <mxGeometry x="350" y="180" width="120" height="80" as="geometry" />
        </mxCell>
        <mxCell id="MY-tYENC7k9GPu_FFXqe-5" value="Vreme" style="ellipse;whiteSpace=wrap;html=1;" parent="1" vertex="1">
          <mxGeometry x="510" y="190" width="120" height="80" as="geometry" />
        </mxCell>
        <mxCell id="MY-tYENC7k9GPu_FFXqe-11" value="" style="endArrow=none;html=1;rounded=0;entryX=0;entryY=0;entryDx=0;entryDy=0;exitX=1;exitY=1;exitDx=0;exitDy=0;" parent="1" source="MY-tYENC7k9GPu_FFXqe-3" target="MY-tYENC7k9GPu_FFXqe-2" edge="1">
          <mxGeometry width="50" height="50" relative="1" as="geometry">
            <mxPoint x="360" y="420" as="sourcePoint" />
            <mxPoint x="410" y="370" as="targetPoint" />
          </mxGeometry>
        </mxCell>
        <mxCell id="MY-tYENC7k9GPu_FFXqe-13" value="" style="endArrow=none;html=1;rounded=0;entryX=0.5;entryY=0;entryDx=0;entryDy=0;exitX=0.5;exitY=1;exitDx=0;exitDy=0;" parent="1" source="MY-tYENC7k9GPu_FFXqe-4" target="MY-tYENC7k9GPu_FFXqe-2" edge="1">
          <mxGeometry width="50" height="50" relative="1" as="geometry">
            <mxPoint x="430" y="280" as="sourcePoint" />
            <mxPoint x="530" y="350" as="targetPoint" />
          </mxGeometry>
        </mxCell>
        <mxCell id="MY-tYENC7k9GPu_FFXqe-14" value="" style="endArrow=none;html=1;rounded=0;entryX=1;entryY=0;entryDx=0;entryDy=0;exitX=0;exitY=1;exitDx=0;exitDy=0;" parent="1" source="MY-tYENC7k9GPu_FFXqe-5" target="MY-tYENC7k9GPu_FFXqe-2" edge="1">
          <mxGeometry width="50" height="50" relative="1" as="geometry">
            <mxPoint x="550" y="350" as="sourcePoint" />
            <mxPoint x="650" y="420" as="targetPoint" />
          </mxGeometry>
        </mxCell>
        <mxCell id="MY-tYENC7k9GPu_FFXqe-29" style="edgeStyle=orthogonalEdgeStyle;shape=connector;curved=0;rounded=1;orthogonalLoop=1;jettySize=auto;html=1;exitX=0.75;exitY=1;exitDx=0;exitDy=0;entryX=0;entryY=0.5;entryDx=0;entryDy=0;strokeColor=default;align=center;verticalAlign=middle;fontFamily=Helvetica;fontSize=11;fontColor=default;labelBackgroundColor=default;endArrow=none;endFill=0;" parent="1" source="MY-tYENC7k9GPu_FFXqe-15" target="MY-tYENC7k9GPu_FFXqe-28" edge="1">
          <mxGeometry relative="1" as="geometry" />
        </mxCell>
        <mxCell id="MY-tYENC7k9GPu_FFXqe-15" value="Lokacija" style="rounded=0;whiteSpace=wrap;html=1;" parent="1" vertex="1">
          <mxGeometry x="350" y="540" width="120" height="60" as="geometry" />
        </mxCell>
        <mxCell id="MY-tYENC7k9GPu_FFXqe-16" value="ima" style="rhombus;whiteSpace=wrap;html=1;" parent="1" vertex="1">
          <mxGeometry x="370" y="410" width="80" height="80" as="geometry" />
        </mxCell>
        <mxCell id="MY-tYENC7k9GPu_FFXqe-23" style="edgeStyle=orthogonalEdgeStyle;rounded=0;orthogonalLoop=1;jettySize=auto;html=1;exitX=1;exitY=0.5;exitDx=0;exitDy=0;entryX=0;entryY=0.5;entryDx=0;entryDy=0;endArrow=none;endFill=0;" parent="1" source="MY-tYENC7k9GPu_FFXqe-19" target="MY-tYENC7k9GPu_FFXqe-15" edge="1">
          <mxGeometry relative="1" as="geometry" />
        </mxCell>
        <mxCell id="MY-tYENC7k9GPu_FFXqe-19" value="Ime" style="ellipse;whiteSpace=wrap;html=1;" parent="1" vertex="1">
          <mxGeometry x="150" y="530" width="120" height="80" as="geometry" />
        </mxCell>
        <mxCell id="aRnnZAHk4HtuIv6q_tbA-14" style="edgeStyle=orthogonalEdgeStyle;rounded=0;orthogonalLoop=1;jettySize=auto;html=1;exitX=0;exitY=1;exitDx=0;exitDy=0;endArrow=none;endFill=0;" parent="1" source="MY-tYENC7k9GPu_FFXqe-20" target="MY-tYENC7k9GPu_FFXqe-32" edge="1">
          <mxGeometry relative="1" as="geometry" />
        </mxCell>
        <mxCell id="aRnnZAHk4HtuIv6q_tbA-15" style="edgeStyle=orthogonalEdgeStyle;rounded=0;orthogonalLoop=1;jettySize=auto;html=1;exitX=1;exitY=1;exitDx=0;exitDy=0;entryX=0.5;entryY=0;entryDx=0;entryDy=0;endArrow=none;endFill=0;" parent="1" source="MY-tYENC7k9GPu_FFXqe-20" target="MY-tYENC7k9GPu_FFXqe-31" edge="1">
          <mxGeometry relative="1" as="geometry" />
        </mxCell>
        <mxCell id="MY-tYENC7k9GPu_FFXqe-20" value="D" style="ellipse;whiteSpace=wrap;html=1;" parent="1" vertex="1">
          <mxGeometry x="380" y="740" width="60" height="50" as="geometry" />
        </mxCell>
        <mxCell id="MY-tYENC7k9GPu_FFXqe-26" style="edgeStyle=orthogonalEdgeStyle;shape=connector;rounded=1;orthogonalLoop=1;jettySize=auto;html=1;exitX=1;exitY=0;exitDx=0;exitDy=0;entryX=0.25;entryY=1;entryDx=0;entryDy=0;strokeColor=default;align=center;verticalAlign=middle;fontFamily=Helvetica;fontSize=11;fontColor=default;labelBackgroundColor=default;endArrow=none;endFill=0;curved=0;" parent="1" source="MY-tYENC7k9GPu_FFXqe-21" target="MY-tYENC7k9GPu_FFXqe-15" edge="1">
          <mxGeometry relative="1" as="geometry" />
        </mxCell>
        <mxCell id="MY-tYENC7k9GPu_FFXqe-21" value="Adresa" style="ellipse;whiteSpace=wrap;html=1;" parent="1" vertex="1">
          <mxGeometry x="180" y="640" width="120" height="80" as="geometry" />
        </mxCell>
        <mxCell id="MY-tYENC7k9GPu_FFXqe-28" value="&lt;u&gt;LokacijaID&lt;/u&gt;" style="ellipse;whiteSpace=wrap;html=1;" parent="1" vertex="1">
          <mxGeometry x="540" y="640" width="120" height="80" as="geometry" />
        </mxCell>
        <mxCell id="MY-tYENC7k9GPu_FFXqe-31" value="Tehnoloski park" style="rounded=0;whiteSpace=wrap;html=1;" parent="1" vertex="1">
          <mxGeometry x="480" y="940" width="120" height="60" as="geometry" />
        </mxCell>
        <mxCell id="MY-tYENC7k9GPu_FFXqe-32" value="Univerzitetska" style="rounded=0;whiteSpace=wrap;html=1;" parent="1" vertex="1">
          <mxGeometry x="230" y="940" width="120" height="60" as="geometry" />
        </mxCell>
        <mxCell id="MY-tYENC7k9GPu_FFXqe-37" style="edgeStyle=orthogonalEdgeStyle;shape=connector;curved=0;rounded=1;orthogonalLoop=1;jettySize=auto;html=1;exitX=0.5;exitY=0;exitDx=0;exitDy=0;entryX=0;entryY=1;entryDx=0;entryDy=0;strokeColor=default;align=center;verticalAlign=middle;fontFamily=Helvetica;fontSize=11;fontColor=default;labelBackgroundColor=default;endArrow=none;endFill=0;" parent="1" source="MY-tYENC7k9GPu_FFXqe-33" target="MY-tYENC7k9GPu_FFXqe-32" edge="1">
          <mxGeometry relative="1" as="geometry" />
        </mxCell>
        <mxCell id="MY-tYENC7k9GPu_FFXqe-33" value="Broj na labs" style="ellipse;whiteSpace=wrap;html=1;fontFamily=Helvetica;fontSize=11;fontColor=default;labelBackgroundColor=default;" parent="1" vertex="1">
          <mxGeometry x="140" y="1030" width="120" height="80" as="geometry" />
        </mxCell>
        <mxCell id="MY-tYENC7k9GPu_FFXqe-34" value="ime na glavna sala" style="ellipse;whiteSpace=wrap;html=1;fontFamily=Helvetica;fontSize=11;fontColor=default;labelBackgroundColor=default;" parent="1" vertex="1">
          <mxGeometry x="370" y="1040" width="120" height="80" as="geometry" />
        </mxCell>
        <mxCell id="MY-tYENC7k9GPu_FFXqe-35" value="godina na osnovanje" style="ellipse;whiteSpace=wrap;html=1;fontFamily=Helvetica;fontSize=11;fontColor=default;labelBackgroundColor=default;" parent="1" vertex="1">
          <mxGeometry x="580" y="1040" width="120" height="80" as="geometry" />
        </mxCell>
        <mxCell id="MY-tYENC7k9GPu_FFXqe-38" style="edgeStyle=orthogonalEdgeStyle;shape=connector;curved=0;rounded=1;orthogonalLoop=1;jettySize=auto;html=1;exitX=0.5;exitY=0;exitDx=0;exitDy=0;entryX=0.42;entryY=1.063;entryDx=0;entryDy=0;entryPerimeter=0;strokeColor=default;align=center;verticalAlign=middle;fontFamily=Helvetica;fontSize=11;fontColor=default;labelBackgroundColor=default;endArrow=none;endFill=0;" parent="1" source="MY-tYENC7k9GPu_FFXqe-34" target="MY-tYENC7k9GPu_FFXqe-31" edge="1">
          <mxGeometry relative="1" as="geometry" />
        </mxCell>
        <mxCell id="MY-tYENC7k9GPu_FFXqe-39" style="edgeStyle=orthogonalEdgeStyle;shape=connector;curved=0;rounded=1;orthogonalLoop=1;jettySize=auto;html=1;exitX=0.5;exitY=0;exitDx=0;exitDy=0;entryX=0.659;entryY=1.031;entryDx=0;entryDy=0;entryPerimeter=0;strokeColor=default;align=center;verticalAlign=middle;fontFamily=Helvetica;fontSize=11;fontColor=default;labelBackgroundColor=default;endArrow=none;endFill=0;" parent="1" source="MY-tYENC7k9GPu_FFXqe-35" target="MY-tYENC7k9GPu_FFXqe-31" edge="1">
          <mxGeometry relative="1" as="geometry" />
        </mxCell>
        <mxCell id="MY-tYENC7k9GPu_FFXqe-59" style="edgeStyle=orthogonalEdgeStyle;shape=connector;curved=0;rounded=1;orthogonalLoop=1;jettySize=auto;html=1;exitX=1;exitY=0.25;exitDx=0;exitDy=0;entryX=0.5;entryY=0;entryDx=0;entryDy=0;strokeColor=default;align=center;verticalAlign=middle;fontFamily=Helvetica;fontSize=11;fontColor=default;labelBackgroundColor=default;endArrow=none;endFill=0;" parent="1" source="aRnnZAHk4HtuIv6q_tbA-20" target="MY-tYENC7k9GPu_FFXqe-56" edge="1">
          <mxGeometry relative="1" as="geometry">
            <mxPoint x="890" y="310" as="sourcePoint" />
          </mxGeometry>
        </mxCell>
        <mxCell id="MY-tYENC7k9GPu_FFXqe-60" style="edgeStyle=orthogonalEdgeStyle;shape=connector;curved=0;rounded=1;orthogonalLoop=1;jettySize=auto;html=1;exitX=1;exitY=0.75;exitDx=0;exitDy=0;entryX=0;entryY=0.5;entryDx=0;entryDy=0;strokeColor=default;align=center;verticalAlign=middle;fontFamily=Helvetica;fontSize=11;fontColor=default;labelBackgroundColor=default;endArrow=none;endFill=0;" parent="1" source="aRnnZAHk4HtuIv6q_tbA-20" target="MY-tYENC7k9GPu_FFXqe-55" edge="1">
          <mxGeometry relative="1" as="geometry">
            <mxPoint x="890" y="340" as="sourcePoint" />
          </mxGeometry>
        </mxCell>
        <mxCell id="MY-tYENC7k9GPu_FFXqe-83" style="edgeStyle=orthogonalEdgeStyle;shape=connector;curved=0;rounded=1;orthogonalLoop=1;jettySize=auto;html=1;exitX=0.5;exitY=1;exitDx=0;exitDy=0;entryX=0.5;entryY=0;entryDx=0;entryDy=0;strokeColor=default;align=center;verticalAlign=middle;fontFamily=Helvetica;fontSize=11;fontColor=default;labelBackgroundColor=default;endArrow=none;endFill=0;" parent="1" source="aRnnZAHk4HtuIv6q_tbA-20" target="MY-tYENC7k9GPu_FFXqe-82" edge="1">
          <mxGeometry relative="1" as="geometry">
            <mxPoint x="830" y="370" as="sourcePoint" />
          </mxGeometry>
        </mxCell>
        <mxCell id="MY-tYENC7k9GPu_FFXqe-48" value="Se odrzhuva" style="rhombus;whiteSpace=wrap;html=1;" parent="1" vertex="1">
          <mxGeometry x="550" y="300" width="110" height="80" as="geometry" />
        </mxCell>
        <mxCell id="MY-tYENC7k9GPu_FFXqe-55" value="Krajna data" style="ellipse;whiteSpace=wrap;html=1;" parent="1" vertex="1">
          <mxGeometry x="940" y="390" width="120" height="80" as="geometry" />
        </mxCell>
        <mxCell id="MY-tYENC7k9GPu_FFXqe-56" value="Pocetna data" style="ellipse;whiteSpace=wrap;html=1;" parent="1" vertex="1">
          <mxGeometry x="940" y="290" width="120" height="80" as="geometry" />
        </mxCell>
        <mxCell id="MY-tYENC7k9GPu_FFXqe-61" style="edgeStyle=orthogonalEdgeStyle;shape=connector;curved=0;rounded=1;orthogonalLoop=1;jettySize=auto;html=1;exitX=0.5;exitY=0;exitDx=0;exitDy=0;strokeColor=default;align=center;verticalAlign=middle;fontFamily=Helvetica;fontSize=11;fontColor=default;labelBackgroundColor=default;endArrow=none;endFill=0;entryX=0.25;entryY=1;entryDx=0;entryDy=0;" parent="1" source="MY-tYENC7k9GPu_FFXqe-57" target="aRnnZAHk4HtuIv6q_tbA-20" edge="1">
          <mxGeometry relative="1" as="geometry">
            <mxPoint x="800" y="370" as="targetPoint" />
          </mxGeometry>
        </mxCell>
        <mxCell id="MY-tYENC7k9GPu_FFXqe-57" value="Glaven Organizator" style="ellipse;whiteSpace=wrap;html=1;" parent="1" vertex="1">
          <mxGeometry x="630" y="410" width="120" height="80" as="geometry" />
        </mxCell>
        <mxCell id="MY-tYENC7k9GPu_FFXqe-62" value="Inzhener" style="rounded=0;whiteSpace=wrap;html=1;" parent="1" vertex="1">
          <mxGeometry x="867" y="710" width="120" height="60" as="geometry" />
        </mxCell>
        <mxCell id="MY-tYENC7k9GPu_FFXqe-81" style="edgeStyle=orthogonalEdgeStyle;shape=connector;curved=0;rounded=1;orthogonalLoop=1;jettySize=auto;html=1;exitX=0.5;exitY=0;exitDx=0;exitDy=0;entryX=0.5;entryY=1;entryDx=0;entryDy=0;strokeColor=default;align=center;verticalAlign=middle;fontFamily=Helvetica;fontSize=11;fontColor=default;labelBackgroundColor=default;endArrow=none;endFill=0;" parent="1" source="MY-tYENC7k9GPu_FFXqe-63" target="MY-tYENC7k9GPu_FFXqe-62" edge="1">
          <mxGeometry relative="1" as="geometry" />
        </mxCell>
        <mxCell id="MY-tYENC7k9GPu_FFXqe-63" value="Nacionalnost" style="ellipse;whiteSpace=wrap;html=1;" parent="1" vertex="1">
          <mxGeometry x="830" y="830" width="120" height="80" as="geometry" />
        </mxCell>
        <mxCell id="MY-tYENC7k9GPu_FFXqe-80" style="edgeStyle=orthogonalEdgeStyle;shape=connector;curved=0;rounded=1;orthogonalLoop=1;jettySize=auto;html=1;exitX=0.5;exitY=0;exitDx=0;exitDy=0;strokeColor=default;align=center;verticalAlign=middle;fontFamily=Helvetica;fontSize=11;fontColor=default;labelBackgroundColor=default;endArrow=none;endFill=0;" parent="1" source="MY-tYENC7k9GPu_FFXqe-64" target="MY-tYENC7k9GPu_FFXqe-62" edge="1">
          <mxGeometry relative="1" as="geometry" />
        </mxCell>
        <mxCell id="MY-tYENC7k9GPu_FFXqe-64" value="&lt;u&gt;Korisnicko ime&lt;/u&gt;" style="ellipse;whiteSpace=wrap;html=1;" parent="1" vertex="1">
          <mxGeometry x="720" y="765" width="120" height="80" as="geometry" />
        </mxCell>
        <mxCell id="5aDkIVA3FT6j9TxwKnW4-33" style="edgeStyle=orthogonalEdgeStyle;rounded=0;orthogonalLoop=1;jettySize=auto;html=1;entryX=0.5;entryY=1;entryDx=0;entryDy=0;endArrow=none;endFill=0;" edge="1" parent="1" source="MY-tYENC7k9GPu_FFXqe-66" target="5aDkIVA3FT6j9TxwKnW4-34">
          <mxGeometry relative="1" as="geometry">
            <mxPoint x="1139.9999999999998" y="450" as="targetPoint" />
          </mxGeometry>
        </mxCell>
        <mxCell id="MY-tYENC7k9GPu_FFXqe-66" value="Kompanija" style="rounded=0;whiteSpace=wrap;html=1;" parent="1" vertex="1">
          <mxGeometry x="1200" y="520" width="120" height="60" as="geometry" />
        </mxCell>
        <mxCell id="MY-tYENC7k9GPu_FFXqe-168" style="edgeStyle=orthogonalEdgeStyle;shape=connector;curved=0;rounded=1;orthogonalLoop=1;jettySize=auto;html=1;exitX=0.5;exitY=1;exitDx=0;exitDy=0;entryX=0.5;entryY=0;entryDx=0;entryDy=0;strokeColor=default;align=center;verticalAlign=middle;fontFamily=Helvetica;fontSize=11;fontColor=default;labelBackgroundColor=default;endArrow=none;endFill=0;" parent="1" source="MY-tYENC7k9GPu_FFXqe-67" target="MY-tYENC7k9GPu_FFXqe-162" edge="1">
          <mxGeometry relative="1" as="geometry" />
        </mxCell>
        <mxCell id="MY-tYENC7k9GPu_FFXqe-169" style="edgeStyle=orthogonalEdgeStyle;shape=connector;curved=0;rounded=1;orthogonalLoop=1;jettySize=auto;html=1;exitX=0.5;exitY=1;exitDx=0;exitDy=0;entryX=1;entryY=0;entryDx=0;entryDy=0;strokeColor=default;align=center;verticalAlign=middle;fontFamily=Helvetica;fontSize=11;fontColor=default;labelBackgroundColor=default;endArrow=none;endFill=0;" parent="1" source="MY-tYENC7k9GPu_FFXqe-67" target="MY-tYENC7k9GPu_FFXqe-163" edge="1">
          <mxGeometry relative="1" as="geometry" />
        </mxCell>
        <mxCell id="MY-tYENC7k9GPu_FFXqe-170" style="edgeStyle=orthogonalEdgeStyle;shape=connector;curved=0;rounded=1;orthogonalLoop=1;jettySize=auto;html=1;exitX=0.5;exitY=1;exitDx=0;exitDy=0;entryX=0;entryY=0;entryDx=0;entryDy=0;strokeColor=default;align=center;verticalAlign=middle;fontFamily=Helvetica;fontSize=11;fontColor=default;labelBackgroundColor=default;endArrow=none;endFill=0;" parent="1" source="MY-tYENC7k9GPu_FFXqe-67" target="MY-tYENC7k9GPu_FFXqe-164" edge="1">
          <mxGeometry relative="1" as="geometry" />
        </mxCell>
        <mxCell id="MY-tYENC7k9GPu_FFXqe-67" value="Sorabotuva so&amp;nbsp;" style="rhombus;whiteSpace=wrap;html=1;" parent="1" vertex="1">
          <mxGeometry x="1171" y="690" width="110" height="80" as="geometry" />
        </mxCell>
        <mxCell id="MY-tYENC7k9GPu_FFXqe-77" style="edgeStyle=orthogonalEdgeStyle;shape=connector;curved=0;rounded=1;orthogonalLoop=1;jettySize=auto;html=1;exitX=0.5;exitY=1;exitDx=0;exitDy=0;entryX=1;entryY=0.5;entryDx=0;entryDy=0;strokeColor=default;align=center;verticalAlign=middle;fontFamily=Helvetica;fontSize=11;fontColor=default;labelBackgroundColor=default;endArrow=none;endFill=0;" parent="1" source="MY-tYENC7k9GPu_FFXqe-74" target="MY-tYENC7k9GPu_FFXqe-66" edge="1">
          <mxGeometry relative="1" as="geometry" />
        </mxCell>
        <mxCell id="MY-tYENC7k9GPu_FFXqe-74" value="Sponzori" style="ellipse;whiteSpace=wrap;html=1;" parent="1" vertex="1">
          <mxGeometry x="1380" y="550" width="120" height="80" as="geometry" />
        </mxCell>
        <mxCell id="MY-tYENC7k9GPu_FFXqe-76" style="edgeStyle=orthogonalEdgeStyle;shape=connector;curved=0;rounded=1;orthogonalLoop=1;jettySize=auto;html=1;exitX=0.5;exitY=1;exitDx=0;exitDy=0;entryX=0.5;entryY=0;entryDx=0;entryDy=0;strokeColor=default;align=center;verticalAlign=middle;fontFamily=Helvetica;fontSize=11;fontColor=default;labelBackgroundColor=default;endArrow=none;endFill=0;" parent="1" source="MY-tYENC7k9GPu_FFXqe-75" target="MY-tYENC7k9GPu_FFXqe-66" edge="1">
          <mxGeometry relative="1" as="geometry" />
        </mxCell>
        <mxCell id="MY-tYENC7k9GPu_FFXqe-75" value="&lt;u&gt;Ime&lt;/u&gt;" style="ellipse;whiteSpace=wrap;html=1;" parent="1" vertex="1">
          <mxGeometry x="1349" y="410" width="120" height="80" as="geometry" />
        </mxCell>
        <mxCell id="MY-tYENC7k9GPu_FFXqe-84" style="edgeStyle=orthogonalEdgeStyle;shape=connector;curved=0;rounded=1;orthogonalLoop=1;jettySize=auto;html=1;exitX=0.5;exitY=1;exitDx=0;exitDy=0;entryX=0.5;entryY=0;entryDx=0;entryDy=0;strokeColor=default;align=center;verticalAlign=middle;fontFamily=Helvetica;fontSize=11;fontColor=default;labelBackgroundColor=default;endArrow=none;endFill=0;" parent="1" source="MY-tYENC7k9GPu_FFXqe-82" target="MY-tYENC7k9GPu_FFXqe-62" edge="1">
          <mxGeometry relative="1" as="geometry">
            <mxPoint x="925" y="585" as="sourcePoint" />
            <Array as="points">
              <mxPoint x="830" y="710" />
            </Array>
          </mxGeometry>
        </mxCell>
        <mxCell id="MY-tYENC7k9GPu_FFXqe-105" value="N" style="edgeLabel;html=1;align=center;verticalAlign=middle;resizable=0;points=[];fontFamily=Helvetica;fontSize=11;fontColor=default;labelBackgroundColor=default;" parent="MY-tYENC7k9GPu_FFXqe-84" vertex="1" connectable="0">
          <mxGeometry x="-0.8473" y="8" relative="1" as="geometry">
            <mxPoint x="7" as="offset" />
          </mxGeometry>
        </mxCell>
        <mxCell id="MY-tYENC7k9GPu_FFXqe-172" style="edgeStyle=orthogonalEdgeStyle;shape=connector;curved=0;rounded=1;orthogonalLoop=1;jettySize=auto;html=1;exitX=1;exitY=0.5;exitDx=0;exitDy=0;entryX=0;entryY=0.75;entryDx=0;entryDy=0;strokeColor=default;align=center;verticalAlign=middle;fontFamily=Helvetica;fontSize=11;fontColor=default;labelBackgroundColor=default;endArrow=none;endFill=0;" parent="1" source="MY-tYENC7k9GPu_FFXqe-82" target="MY-tYENC7k9GPu_FFXqe-66" edge="1">
          <mxGeometry relative="1" as="geometry" />
        </mxCell>
        <mxCell id="MY-tYENC7k9GPu_FFXqe-179" style="edgeStyle=orthogonalEdgeStyle;shape=connector;curved=0;rounded=1;orthogonalLoop=1;jettySize=auto;html=1;exitX=1;exitY=1;exitDx=0;exitDy=0;strokeColor=default;align=center;verticalAlign=middle;fontFamily=Helvetica;fontSize=11;fontColor=default;labelBackgroundColor=default;endArrow=none;endFill=0;entryX=0;entryY=0;entryDx=0;entryDy=0;" parent="1" source="MY-tYENC7k9GPu_FFXqe-82" target="MY-tYENC7k9GPu_FFXqe-180" edge="1">
          <mxGeometry relative="1" as="geometry">
            <mxPoint x="910" y="600" as="targetPoint" />
            <Array as="points">
              <mxPoint x="858" y="580" />
              <mxPoint x="910" y="580" />
              <mxPoint x="910" y="602" />
            </Array>
          </mxGeometry>
        </mxCell>
        <mxCell id="MY-tYENC7k9GPu_FFXqe-82" value="Prezentira" style="rhombus;whiteSpace=wrap;html=1;" parent="1" vertex="1">
          <mxGeometry x="775" y="480" width="110" height="80" as="geometry" />
        </mxCell>
        <mxCell id="MY-tYENC7k9GPu_FFXqe-121" style="edgeStyle=orthogonalEdgeStyle;shape=connector;curved=0;rounded=1;orthogonalLoop=1;jettySize=auto;html=1;exitX=0.25;exitY=1;exitDx=0;exitDy=0;entryX=1;entryY=0.5;entryDx=0;entryDy=0;strokeColor=default;align=center;verticalAlign=middle;fontFamily=Helvetica;fontSize=11;fontColor=default;labelBackgroundColor=default;endArrow=none;endFill=0;" parent="1" source="MY-tYENC7k9GPu_FFXqe-125" target="MY-tYENC7k9GPu_FFXqe-126" edge="1">
          <mxGeometry relative="1" as="geometry" />
        </mxCell>
        <mxCell id="MY-tYENC7k9GPu_FFXqe-122" style="edgeStyle=orthogonalEdgeStyle;shape=connector;curved=0;rounded=1;orthogonalLoop=1;jettySize=auto;html=1;exitX=0;exitY=0.5;exitDx=0;exitDy=0;entryX=1;entryY=0.5;entryDx=0;entryDy=0;strokeColor=default;align=center;verticalAlign=middle;fontFamily=Helvetica;fontSize=11;fontColor=default;labelBackgroundColor=default;endArrow=none;endFill=0;" parent="1" source="MY-tYENC7k9GPu_FFXqe-125" target="MY-tYENC7k9GPu_FFXqe-127" edge="1">
          <mxGeometry relative="1" as="geometry" />
        </mxCell>
        <mxCell id="MY-tYENC7k9GPu_FFXqe-123" style="edgeStyle=orthogonalEdgeStyle;shape=connector;curved=0;rounded=1;orthogonalLoop=1;jettySize=auto;html=1;exitX=0;exitY=1;exitDx=0;exitDy=0;strokeColor=default;align=center;verticalAlign=middle;fontFamily=Helvetica;fontSize=11;fontColor=default;labelBackgroundColor=default;endArrow=none;endFill=0;" parent="1" source="MY-tYENC7k9GPu_FFXqe-125" target="MY-tYENC7k9GPu_FFXqe-128" edge="1">
          <mxGeometry relative="1" as="geometry" />
        </mxCell>
        <mxCell id="MY-tYENC7k9GPu_FFXqe-125" value="Robot" style="rounded=0;whiteSpace=wrap;html=1;" parent="1" vertex="1">
          <mxGeometry x="955" y="1030" width="120" height="60" as="geometry" />
        </mxCell>
        <mxCell id="MY-tYENC7k9GPu_FFXqe-126" value="&lt;u&gt;SeriskiBroj&lt;/u&gt;" style="ellipse;whiteSpace=wrap;html=1;" parent="1" vertex="1">
          <mxGeometry x="835" y="1260" width="120" height="80" as="geometry" />
        </mxCell>
        <mxCell id="MY-tYENC7k9GPu_FFXqe-127" value="Ime" style="ellipse;whiteSpace=wrap;html=1;" parent="1" vertex="1">
          <mxGeometry x="755" y="1000" width="120" height="80" as="geometry" />
        </mxCell>
        <mxCell id="MY-tYENC7k9GPu_FFXqe-128" value="Tip" style="ellipse;whiteSpace=wrap;html=1;" parent="1" vertex="1">
          <mxGeometry x="825" y="1135" width="120" height="80" as="geometry" />
        </mxCell>
        <mxCell id="MY-tYENC7k9GPu_FFXqe-129" style="edgeStyle=orthogonalEdgeStyle;shape=connector;curved=0;rounded=1;orthogonalLoop=1;jettySize=auto;html=1;exitX=0.5;exitY=0;exitDx=0;exitDy=0;entryX=0.5;entryY=1;entryDx=0;entryDy=0;strokeColor=default;align=center;verticalAlign=middle;fontFamily=Helvetica;fontSize=11;fontColor=default;labelBackgroundColor=default;endArrow=none;endFill=0;" parent="1" source="MY-tYENC7k9GPu_FFXqe-133" target="MY-tYENC7k9GPu_FFXqe-145" edge="1">
          <mxGeometry relative="1" as="geometry" />
        </mxCell>
        <mxCell id="MY-tYENC7k9GPu_FFXqe-130" style="edgeStyle=orthogonalEdgeStyle;shape=connector;curved=0;rounded=1;orthogonalLoop=1;jettySize=auto;html=1;exitX=1;exitY=0;exitDx=0;exitDy=0;entryX=0.5;entryY=1;entryDx=0;entryDy=0;strokeColor=default;align=center;verticalAlign=middle;fontFamily=Helvetica;fontSize=11;fontColor=default;labelBackgroundColor=default;endArrow=none;endFill=0;" parent="1" source="MY-tYENC7k9GPu_FFXqe-133" target="MY-tYENC7k9GPu_FFXqe-146" edge="1">
          <mxGeometry relative="1" as="geometry">
            <Array as="points">
              <mxPoint x="1529" y="1175" />
              <mxPoint x="1655" y="1175" />
            </Array>
          </mxGeometry>
        </mxCell>
        <mxCell id="MY-tYENC7k9GPu_FFXqe-183" style="edgeStyle=orthogonalEdgeStyle;shape=connector;curved=0;rounded=1;orthogonalLoop=1;jettySize=auto;html=1;exitX=0.5;exitY=1;exitDx=0;exitDy=0;entryX=0;entryY=0.5;entryDx=0;entryDy=0;strokeColor=default;align=center;verticalAlign=middle;fontFamily=Helvetica;fontSize=11;fontColor=default;labelBackgroundColor=default;endArrow=none;endFill=0;" parent="1" source="MY-tYENC7k9GPu_FFXqe-133" target="MY-tYENC7k9GPu_FFXqe-182" edge="1">
          <mxGeometry relative="1" as="geometry" />
        </mxCell>
        <mxCell id="MY-tYENC7k9GPu_FFXqe-133" value="Komponenta" style="rounded=0;whiteSpace=wrap;html=1;" parent="1" vertex="1">
          <mxGeometry x="1409" y="1180" width="120" height="60" as="geometry" />
        </mxCell>
        <mxCell id="MY-tYENC7k9GPu_FFXqe-135" style="edgeStyle=orthogonalEdgeStyle;shape=connector;curved=0;rounded=1;orthogonalLoop=1;jettySize=auto;html=1;exitX=0.5;exitY=1;exitDx=0;exitDy=0;strokeColor=default;align=center;verticalAlign=middle;fontFamily=Helvetica;fontSize=11;fontColor=default;labelBackgroundColor=default;endArrow=none;endFill=0;" parent="1" source="MY-tYENC7k9GPu_FFXqe-138" target="MY-tYENC7k9GPu_FFXqe-143" edge="1">
          <mxGeometry relative="1" as="geometry" />
        </mxCell>
        <mxCell id="MY-tYENC7k9GPu_FFXqe-136" value="" style="edgeStyle=orthogonalEdgeStyle;shape=connector;curved=0;rounded=1;orthogonalLoop=1;jettySize=auto;html=1;strokeColor=default;align=center;verticalAlign=middle;fontFamily=Helvetica;fontSize=11;fontColor=default;labelBackgroundColor=default;endArrow=none;endFill=0;" parent="1" source="MY-tYENC7k9GPu_FFXqe-138" target="MY-tYENC7k9GPu_FFXqe-143" edge="1">
          <mxGeometry relative="1" as="geometry" />
        </mxCell>
        <mxCell id="MY-tYENC7k9GPu_FFXqe-137" style="edgeStyle=orthogonalEdgeStyle;shape=connector;curved=0;rounded=1;orthogonalLoop=1;jettySize=auto;html=1;exitX=0.75;exitY=1;exitDx=0;exitDy=0;entryX=0;entryY=0;entryDx=0;entryDy=0;strokeColor=default;align=center;verticalAlign=middle;fontFamily=Helvetica;fontSize=11;fontColor=default;labelBackgroundColor=default;endArrow=none;endFill=0;" parent="1" source="MY-tYENC7k9GPu_FFXqe-138" target="MY-tYENC7k9GPu_FFXqe-144" edge="1">
          <mxGeometry relative="1" as="geometry" />
        </mxCell>
        <mxCell id="MY-tYENC7k9GPu_FFXqe-138" value="Verzija" style="rounded=0;whiteSpace=wrap;html=1;" parent="1" vertex="1">
          <mxGeometry x="1140.5" y="1275" width="120" height="60" as="geometry" />
        </mxCell>
        <mxCell id="MY-tYENC7k9GPu_FFXqe-140" value="Postoi" style="rhombus;whiteSpace=wrap;html=1;rounded=0;" parent="1" vertex="1">
          <mxGeometry x="1015" y="1185" width="80" height="80" as="geometry" />
        </mxCell>
        <mxCell id="MY-tYENC7k9GPu_FFXqe-142" value="Sodrzhi" style="rhombus;whiteSpace=wrap;html=1;rounded=0;" parent="1" vertex="1">
          <mxGeometry x="1329" y="1265" width="80" height="80" as="geometry" />
        </mxCell>
        <mxCell id="MY-tYENC7k9GPu_FFXqe-143" value="Broj na verzija" style="ellipse;whiteSpace=wrap;html=1;" parent="1" vertex="1">
          <mxGeometry x="1085" y="1365" width="120" height="80" as="geometry" />
        </mxCell>
        <mxCell id="MY-tYENC7k9GPu_FFXqe-144" value="Datum na prijava" style="ellipse;whiteSpace=wrap;html=1;" parent="1" vertex="1">
          <mxGeometry x="1235" y="1385" width="120" height="80" as="geometry" />
        </mxCell>
        <mxCell id="MY-tYENC7k9GPu_FFXqe-145" value="Ime" style="ellipse;whiteSpace=wrap;html=1;" parent="1" vertex="1">
          <mxGeometry x="1419.5" y="1065" width="120" height="80" as="geometry" />
        </mxCell>
        <mxCell id="MY-tYENC7k9GPu_FFXqe-146" value="Proizvoditel" style="ellipse;whiteSpace=wrap;html=1;" parent="1" vertex="1">
          <mxGeometry x="1595" y="1075" width="120" height="80" as="geometry" />
        </mxCell>
        <mxCell id="MY-tYENC7k9GPu_FFXqe-162" value="Kraj" style="ellipse;whiteSpace=wrap;html=1;" parent="1" vertex="1">
          <mxGeometry x="1181.5" y="860" width="120" height="80" as="geometry" />
        </mxCell>
        <mxCell id="MY-tYENC7k9GPu_FFXqe-163" value="Pocetok" style="ellipse;whiteSpace=wrap;html=1;" parent="1" vertex="1">
          <mxGeometry x="1086" y="780" width="120" height="80" as="geometry" />
        </mxCell>
        <mxCell id="MY-tYENC7k9GPu_FFXqe-164" value="Tip" style="ellipse;whiteSpace=wrap;html=1;" parent="1" vertex="1">
          <mxGeometry x="1276" y="795" width="120" height="80" as="geometry" />
        </mxCell>
        <mxCell id="MY-tYENC7k9GPu_FFXqe-173" value="N" style="text;html=1;whiteSpace=wrap;strokeColor=none;fillColor=none;align=center;verticalAlign=middle;rounded=0;fontFamily=Helvetica;fontSize=11;fontColor=default;labelBackgroundColor=default;" parent="1" vertex="1">
          <mxGeometry x="867" y="520" width="60" height="30" as="geometry" />
        </mxCell>
        <mxCell id="MY-tYENC7k9GPu_FFXqe-174" value="N" style="text;html=1;whiteSpace=wrap;strokeColor=none;fillColor=none;align=center;verticalAlign=middle;rounded=0;fontFamily=Helvetica;fontSize=11;fontColor=default;labelBackgroundColor=default;" parent="1" vertex="1">
          <mxGeometry x="820" y="460" width="60" height="30" as="geometry" />
        </mxCell>
        <mxCell id="MY-tYENC7k9GPu_FFXqe-180" value="Poeni" style="ellipse;whiteSpace=wrap;html=1;" parent="1" vertex="1">
          <mxGeometry x="920" y="590" width="90" height="40" as="geometry" />
        </mxCell>
        <mxCell id="MY-tYENC7k9GPu_FFXqe-184" style="edgeStyle=orthogonalEdgeStyle;shape=connector;curved=0;rounded=1;orthogonalLoop=1;jettySize=auto;html=1;exitX=0.5;exitY=0;exitDx=0;exitDy=0;entryX=0.75;entryY=1;entryDx=0;entryDy=0;strokeColor=default;align=center;verticalAlign=middle;fontFamily=Helvetica;fontSize=11;fontColor=default;labelBackgroundColor=default;endArrow=none;endFill=0;" parent="1" source="MY-tYENC7k9GPu_FFXqe-182" target="MY-tYENC7k9GPu_FFXqe-133" edge="1">
          <mxGeometry relative="1" as="geometry" />
        </mxCell>
        <mxCell id="MY-tYENC7k9GPu_FFXqe-182" value="" style="rhombus;whiteSpace=wrap;html=1;fontFamily=Helvetica;fontSize=11;fontColor=default;labelBackgroundColor=default;" parent="1" vertex="1">
          <mxGeometry x="1510" y="1375" width="70" height="45" as="geometry" />
        </mxCell>
        <mxCell id="MY-tYENC7k9GPu_FFXqe-185" value="N" style="text;html=1;whiteSpace=wrap;strokeColor=none;fillColor=none;align=center;verticalAlign=middle;rounded=0;fontFamily=Helvetica;fontSize=11;fontColor=default;labelBackgroundColor=default;" parent="1" vertex="1">
          <mxGeometry x="1529" y="1350" width="60" height="30" as="geometry" />
        </mxCell>
        <mxCell id="MY-tYENC7k9GPu_FFXqe-186" value="N" style="text;html=1;whiteSpace=wrap;strokeColor=none;fillColor=none;align=center;verticalAlign=middle;rounded=0;fontFamily=Helvetica;fontSize=11;fontColor=default;labelBackgroundColor=default;" parent="1" vertex="1">
          <mxGeometry x="1469" y="1390" width="60" height="30" as="geometry" />
        </mxCell>
        <mxCell id="aRnnZAHk4HtuIv6q_tbA-1" value="" style="shape=link;html=1;rounded=0;exitX=0.5;exitY=1;exitDx=0;exitDy=0;" parent="1" source="MY-tYENC7k9GPu_FFXqe-2" edge="1">
          <mxGeometry relative="1" as="geometry">
            <mxPoint x="510" y="480" as="sourcePoint" />
            <mxPoint x="410" y="410" as="targetPoint" />
          </mxGeometry>
        </mxCell>
        <mxCell id="aRnnZAHk4HtuIv6q_tbA-2" value="N" style="resizable=0;html=1;whiteSpace=wrap;align=right;verticalAlign=bottom;" parent="aRnnZAHk4HtuIv6q_tbA-1" connectable="0" vertex="1">
          <mxGeometry x="1" relative="1" as="geometry" />
        </mxCell>
        <mxCell id="aRnnZAHk4HtuIv6q_tbA-5" value="" style="shape=link;html=1;rounded=0;exitX=0.5;exitY=1;exitDx=0;exitDy=0;entryX=0.5;entryY=0;entryDx=0;entryDy=0;" parent="1" source="MY-tYENC7k9GPu_FFXqe-16" target="MY-tYENC7k9GPu_FFXqe-15" edge="1">
          <mxGeometry relative="1" as="geometry">
            <mxPoint x="420" y="380" as="sourcePoint" />
            <mxPoint x="420" y="420" as="targetPoint" />
          </mxGeometry>
        </mxCell>
        <mxCell id="aRnnZAHk4HtuIv6q_tbA-6" value="1" style="resizable=0;html=1;whiteSpace=wrap;align=right;verticalAlign=bottom;" parent="aRnnZAHk4HtuIv6q_tbA-5" connectable="0" vertex="1">
          <mxGeometry x="1" relative="1" as="geometry">
            <mxPoint y="-30" as="offset" />
          </mxGeometry>
        </mxCell>
        <mxCell id="aRnnZAHk4HtuIv6q_tbA-10" value="" style="shape=link;html=1;rounded=0;exitX=0.5;exitY=1;exitDx=0;exitDy=0;entryX=0.5;entryY=0;entryDx=0;entryDy=0;" parent="1" source="MY-tYENC7k9GPu_FFXqe-15" target="MY-tYENC7k9GPu_FFXqe-20" edge="1">
          <mxGeometry relative="1" as="geometry">
            <mxPoint x="420" y="500" as="sourcePoint" />
            <mxPoint x="420" y="550" as="targetPoint" />
          </mxGeometry>
        </mxCell>
        <mxCell id="aRnnZAHk4HtuIv6q_tbA-16" value="" style="shape=link;html=1;rounded=0;exitX=1;exitY=0.5;exitDx=0;exitDy=0;entryX=0;entryY=0.5;entryDx=0;entryDy=0;" parent="1" source="MY-tYENC7k9GPu_FFXqe-2" target="MY-tYENC7k9GPu_FFXqe-48" edge="1">
          <mxGeometry relative="1" as="geometry">
            <mxPoint x="420" y="380" as="sourcePoint" />
            <mxPoint x="420" y="420" as="targetPoint" />
          </mxGeometry>
        </mxCell>
        <mxCell id="aRnnZAHk4HtuIv6q_tbA-17" value="1" style="resizable=0;html=1;whiteSpace=wrap;align=right;verticalAlign=bottom;" parent="aRnnZAHk4HtuIv6q_tbA-16" connectable="0" vertex="1">
          <mxGeometry x="1" relative="1" as="geometry" />
        </mxCell>
        <mxCell id="aRnnZAHk4HtuIv6q_tbA-18" value="" style="shape=link;html=1;rounded=0;exitX=0;exitY=0.5;exitDx=0;exitDy=0;entryX=1;entryY=0.5;entryDx=0;entryDy=0;" parent="1" source="aRnnZAHk4HtuIv6q_tbA-20" target="MY-tYENC7k9GPu_FFXqe-48" edge="1">
          <mxGeometry relative="1" as="geometry">
            <mxPoint x="770" y="340" as="sourcePoint" />
            <mxPoint x="420" y="420" as="targetPoint" />
          </mxGeometry>
        </mxCell>
        <mxCell id="aRnnZAHk4HtuIv6q_tbA-19" value="N" style="resizable=0;html=1;whiteSpace=wrap;align=right;verticalAlign=bottom;" parent="aRnnZAHk4HtuIv6q_tbA-18" connectable="0" vertex="1">
          <mxGeometry x="1" relative="1" as="geometry" />
        </mxCell>
        <mxCell id="aRnnZAHk4HtuIv6q_tbA-20" value="Odrzan hakaton" style="shape=ext;margin=3;double=1;whiteSpace=wrap;html=1;align=center;fontFamily=Helvetica;fontSize=11;fontColor=default;labelBackgroundColor=default;" parent="1" vertex="1">
          <mxGeometry x="775" y="310" width="100" height="40" as="geometry" />
        </mxCell>
        <mxCell id="aRnnZAHk4HtuIv6q_tbA-21" value="" style="shape=link;html=1;rounded=0;exitX=0.5;exitY=0;exitDx=0;exitDy=0;entryX=0;entryY=0.5;entryDx=0;entryDy=0;" parent="1" source="MY-tYENC7k9GPu_FFXqe-125" target="MY-tYENC7k9GPu_FFXqe-82" edge="1">
          <mxGeometry relative="1" as="geometry">
            <mxPoint x="815" y="620" as="sourcePoint" />
            <mxPoint x="700" y="630" as="targetPoint" />
            <Array as="points">
              <mxPoint x="1015" y="940" />
              <mxPoint x="710" y="940" />
              <mxPoint x="710" y="520" />
            </Array>
          </mxGeometry>
        </mxCell>
        <mxCell id="aRnnZAHk4HtuIv6q_tbA-22" value="N" style="resizable=0;html=1;whiteSpace=wrap;align=right;verticalAlign=bottom;" parent="aRnnZAHk4HtuIv6q_tbA-21" connectable="0" vertex="1">
          <mxGeometry x="1" relative="1" as="geometry" />
        </mxCell>
        <mxCell id="aRnnZAHk4HtuIv6q_tbA-25" value="" style="shape=link;html=1;rounded=0;strokeColor=default;align=center;verticalAlign=middle;fontFamily=Helvetica;fontSize=11;fontColor=default;labelBackgroundColor=default;edgeStyle=orthogonalEdgeStyle;endArrow=none;endFill=0;exitX=0.75;exitY=1;exitDx=0;exitDy=0;entryX=0.5;entryY=0;entryDx=0;entryDy=0;" parent="1" source="MY-tYENC7k9GPu_FFXqe-125" target="MY-tYENC7k9GPu_FFXqe-140" edge="1">
          <mxGeometry relative="1" as="geometry">
            <mxPoint x="990" y="1110" as="sourcePoint" />
            <mxPoint x="1150" y="1110" as="targetPoint" />
          </mxGeometry>
        </mxCell>
        <mxCell id="aRnnZAHk4HtuIv6q_tbA-26" value="1" style="resizable=0;html=1;whiteSpace=wrap;align=right;verticalAlign=bottom;fontFamily=Helvetica;fontSize=11;fontColor=default;labelBackgroundColor=default;" parent="aRnnZAHk4HtuIv6q_tbA-25" connectable="0" vertex="1">
          <mxGeometry x="1" relative="1" as="geometry" />
        </mxCell>
        <mxCell id="aRnnZAHk4HtuIv6q_tbA-27" value="" style="shape=link;html=1;rounded=0;strokeColor=default;align=center;verticalAlign=middle;fontFamily=Helvetica;fontSize=11;fontColor=default;labelBackgroundColor=default;edgeStyle=orthogonalEdgeStyle;endArrow=none;endFill=0;exitX=0;exitY=0.5;exitDx=0;exitDy=0;entryX=0.5;entryY=1;entryDx=0;entryDy=0;" parent="1" source="MY-tYENC7k9GPu_FFXqe-138" target="MY-tYENC7k9GPu_FFXqe-140" edge="1">
          <mxGeometry relative="1" as="geometry">
            <mxPoint x="1055" y="1100" as="sourcePoint" />
            <mxPoint x="1170" y="1190" as="targetPoint" />
          </mxGeometry>
        </mxCell>
        <mxCell id="aRnnZAHk4HtuIv6q_tbA-29" value="N" style="text;html=1;whiteSpace=wrap;strokeColor=none;fillColor=none;align=center;verticalAlign=middle;rounded=0;fontFamily=Helvetica;fontSize=11;fontColor=default;labelBackgroundColor=default;" parent="1" vertex="1">
          <mxGeometry x="1010" y="1250" width="70" height="40" as="geometry" />
        </mxCell>
        <mxCell id="aRnnZAHk4HtuIv6q_tbA-31" value="" style="shape=link;html=1;rounded=0;strokeColor=default;align=center;verticalAlign=middle;fontFamily=Helvetica;fontSize=11;fontColor=default;labelBackgroundColor=default;edgeStyle=orthogonalEdgeStyle;endArrow=none;endFill=0;exitX=0;exitY=0.5;exitDx=0;exitDy=0;entryX=1;entryY=0.5;entryDx=0;entryDy=0;" parent="1" source="MY-tYENC7k9GPu_FFXqe-142" target="MY-tYENC7k9GPu_FFXqe-138" edge="1">
          <mxGeometry relative="1" as="geometry">
            <mxPoint x="1281" y="1120" as="sourcePoint" />
            <mxPoint x="1291" y="1215" as="targetPoint" />
          </mxGeometry>
        </mxCell>
        <mxCell id="aRnnZAHk4HtuIv6q_tbA-36" value="" style="shape=link;html=1;rounded=0;strokeColor=default;align=center;verticalAlign=middle;fontFamily=Helvetica;fontSize=11;fontColor=default;labelBackgroundColor=default;edgeStyle=orthogonalEdgeStyle;endArrow=none;endFill=0;exitX=1;exitY=0.5;exitDx=0;exitDy=0;entryX=0.25;entryY=1;entryDx=0;entryDy=0;" parent="1" source="MY-tYENC7k9GPu_FFXqe-142" target="MY-tYENC7k9GPu_FFXqe-133" edge="1">
          <mxGeometry relative="1" as="geometry">
            <mxPoint x="1339" y="1315" as="sourcePoint" />
            <mxPoint x="1271" y="1315" as="targetPoint" />
          </mxGeometry>
        </mxCell>
        <mxCell id="aRnnZAHk4HtuIv6q_tbA-37" value="N" style="text;html=1;whiteSpace=wrap;strokeColor=none;fillColor=none;align=center;verticalAlign=middle;rounded=0;fontFamily=Helvetica;fontSize=11;fontColor=default;labelBackgroundColor=default;" parent="1" vertex="1">
          <mxGeometry x="1290" y="1280" width="60" height="30" as="geometry" />
        </mxCell>
        <mxCell id="aRnnZAHk4HtuIv6q_tbA-38" value="N" style="text;html=1;whiteSpace=wrap;strokeColor=none;fillColor=none;align=center;verticalAlign=middle;rounded=0;fontFamily=Helvetica;fontSize=11;fontColor=default;labelBackgroundColor=default;" parent="1" vertex="1">
          <mxGeometry x="1390" y="1280" width="60" height="30" as="geometry" />
        </mxCell>
        <mxCell id="aRnnZAHk4HtuIv6q_tbA-39" value="" style="shape=link;html=1;rounded=0;strokeColor=default;align=center;verticalAlign=middle;fontFamily=Helvetica;fontSize=11;fontColor=default;labelBackgroundColor=default;edgeStyle=orthogonalEdgeStyle;endArrow=none;endFill=0;exitX=1;exitY=0.5;exitDx=0;exitDy=0;entryX=0;entryY=0.5;entryDx=0;entryDy=0;" parent="1" source="MY-tYENC7k9GPu_FFXqe-62" target="MY-tYENC7k9GPu_FFXqe-67" edge="1">
          <mxGeometry relative="1" as="geometry">
            <mxPoint x="980" y="670" as="sourcePoint" />
            <mxPoint x="1140" y="670" as="targetPoint" />
          </mxGeometry>
        </mxCell>
        <mxCell id="aRnnZAHk4HtuIv6q_tbA-40" value="N" style="resizable=0;html=1;whiteSpace=wrap;align=right;verticalAlign=bottom;fontFamily=Helvetica;fontSize=11;fontColor=default;labelBackgroundColor=default;" parent="aRnnZAHk4HtuIv6q_tbA-39" connectable="0" vertex="1">
          <mxGeometry x="1" relative="1" as="geometry" />
        </mxCell>
        <mxCell id="aRnnZAHk4HtuIv6q_tbA-41" value="" style="shape=link;html=1;rounded=0;strokeColor=default;align=center;verticalAlign=middle;fontFamily=Helvetica;fontSize=11;fontColor=default;labelBackgroundColor=default;edgeStyle=orthogonalEdgeStyle;endArrow=none;endFill=0;exitX=1;exitY=0.5;exitDx=0;exitDy=0;entryX=0.25;entryY=1;entryDx=0;entryDy=0;" parent="1" source="MY-tYENC7k9GPu_FFXqe-67" target="MY-tYENC7k9GPu_FFXqe-66" edge="1">
          <mxGeometry relative="1" as="geometry">
            <mxPoint x="997" y="750" as="sourcePoint" />
            <mxPoint x="1181" y="740" as="targetPoint" />
            <Array as="points">
              <mxPoint x="1280" y="730" />
              <mxPoint x="1280" y="635" />
              <mxPoint x="1230" y="635" />
            </Array>
          </mxGeometry>
        </mxCell>
        <mxCell id="aRnnZAHk4HtuIv6q_tbA-42" value="N" style="resizable=0;html=1;whiteSpace=wrap;align=right;verticalAlign=bottom;fontFamily=Helvetica;fontSize=11;fontColor=default;labelBackgroundColor=default;" parent="aRnnZAHk4HtuIv6q_tbA-41" connectable="0" vertex="1">
          <mxGeometry x="1" relative="1" as="geometry" />
        </mxCell>
        <mxCell id="5aDkIVA3FT6j9TxwKnW4-3" value="U" style="text;html=1;whiteSpace=wrap;strokeColor=none;fillColor=none;align=center;verticalAlign=middle;rounded=0;" vertex="1" parent="1">
          <mxGeometry x="260" y="830" width="60" height="30" as="geometry" />
        </mxCell>
        <mxCell id="5aDkIVA3FT6j9TxwKnW4-4" value="U" style="text;html=1;whiteSpace=wrap;strokeColor=none;fillColor=none;align=center;verticalAlign=middle;rounded=0;" vertex="1" parent="1">
          <mxGeometry x="510" y="815" width="60" height="30" as="geometry" />
        </mxCell>
        <mxCell id="5aDkIVA3FT6j9TxwKnW4-6" style="edgeStyle=orthogonalEdgeStyle;rounded=0;orthogonalLoop=1;jettySize=auto;html=1;exitX=0;exitY=1;exitDx=0;exitDy=0;endArrow=none;endFill=0;" edge="1" parent="1" source="5aDkIVA3FT6j9TxwKnW4-8" target="5aDkIVA3FT6j9TxwKnW4-10">
          <mxGeometry relative="1" as="geometry" />
        </mxCell>
        <mxCell id="5aDkIVA3FT6j9TxwKnW4-7" style="edgeStyle=orthogonalEdgeStyle;rounded=0;orthogonalLoop=1;jettySize=auto;html=1;exitX=1;exitY=1;exitDx=0;exitDy=0;entryX=0.5;entryY=0;entryDx=0;entryDy=0;endArrow=none;endFill=0;" edge="1" parent="1" source="5aDkIVA3FT6j9TxwKnW4-8" target="5aDkIVA3FT6j9TxwKnW4-9">
          <mxGeometry relative="1" as="geometry" />
        </mxCell>
        <mxCell id="5aDkIVA3FT6j9TxwKnW4-8" value="D" style="ellipse;whiteSpace=wrap;html=1;" vertex="1" parent="1">
          <mxGeometry x="1820" y="1200" width="60" height="50" as="geometry" />
        </mxCell>
        <mxCell id="5aDkIVA3FT6j9TxwKnW4-9" value="Tehnoloski park" style="rounded=0;whiteSpace=wrap;html=1;" vertex="1" parent="1">
          <mxGeometry x="1920" y="1400" width="120" height="60" as="geometry" />
        </mxCell>
        <mxCell id="5aDkIVA3FT6j9TxwKnW4-10" value="Mehanicka" style="rounded=0;whiteSpace=wrap;html=1;" vertex="1" parent="1">
          <mxGeometry x="1670" y="1400" width="120" height="60" as="geometry" />
        </mxCell>
        <mxCell id="5aDkIVA3FT6j9TxwKnW4-11" style="edgeStyle=orthogonalEdgeStyle;shape=connector;curved=0;rounded=1;orthogonalLoop=1;jettySize=auto;html=1;exitX=0.5;exitY=0;exitDx=0;exitDy=0;entryX=0;entryY=1;entryDx=0;entryDy=0;strokeColor=default;align=center;verticalAlign=middle;fontFamily=Helvetica;fontSize=11;fontColor=default;labelBackgroundColor=default;endArrow=none;endFill=0;" edge="1" parent="1" source="5aDkIVA3FT6j9TxwKnW4-12" target="5aDkIVA3FT6j9TxwKnW4-10">
          <mxGeometry relative="1" as="geometry" />
        </mxCell>
        <mxCell id="5aDkIVA3FT6j9TxwKnW4-12" value="Maksimalna sila" style="ellipse;whiteSpace=wrap;html=1;fontFamily=Helvetica;fontSize=11;fontColor=default;labelBackgroundColor=default;" vertex="1" parent="1">
          <mxGeometry x="1580" y="1490" width="120" height="80" as="geometry" />
        </mxCell>
        <mxCell id="5aDkIVA3FT6j9TxwKnW4-13" value="napon&amp;nbsp;" style="ellipse;whiteSpace=wrap;html=1;fontFamily=Helvetica;fontSize=11;fontColor=default;labelBackgroundColor=default;" vertex="1" parent="1">
          <mxGeometry x="1810" y="1500" width="120" height="80" as="geometry" />
        </mxCell>
        <mxCell id="5aDkIVA3FT6j9TxwKnW4-14" style="edgeStyle=orthogonalEdgeStyle;shape=connector;curved=0;rounded=1;orthogonalLoop=1;jettySize=auto;html=1;exitX=0.5;exitY=0;exitDx=0;exitDy=0;entryX=0.42;entryY=1.063;entryDx=0;entryDy=0;entryPerimeter=0;strokeColor=default;align=center;verticalAlign=middle;fontFamily=Helvetica;fontSize=11;fontColor=default;labelBackgroundColor=default;endArrow=none;endFill=0;" edge="1" parent="1" source="5aDkIVA3FT6j9TxwKnW4-13" target="5aDkIVA3FT6j9TxwKnW4-9">
          <mxGeometry relative="1" as="geometry" />
        </mxCell>
        <mxCell id="5aDkIVA3FT6j9TxwKnW4-15" style="edgeStyle=orthogonalEdgeStyle;shape=connector;curved=0;rounded=1;orthogonalLoop=1;jettySize=auto;html=1;exitX=0.5;exitY=0;exitDx=0;exitDy=0;entryX=0.659;entryY=1.031;entryDx=0;entryDy=0;entryPerimeter=0;strokeColor=default;align=center;verticalAlign=middle;fontFamily=Helvetica;fontSize=11;fontColor=default;labelBackgroundColor=default;endArrow=none;endFill=0;" edge="1" parent="1" target="5aDkIVA3FT6j9TxwKnW4-9" source="5aDkIVA3FT6j9TxwKnW4-32">
          <mxGeometry relative="1" as="geometry">
            <mxPoint x="2080" y="1500" as="sourcePoint" />
          </mxGeometry>
        </mxCell>
        <mxCell id="5aDkIVA3FT6j9TxwKnW4-16" value="U" style="text;html=1;whiteSpace=wrap;strokeColor=none;fillColor=none;align=center;verticalAlign=middle;rounded=0;" vertex="1" parent="1">
          <mxGeometry x="1700" y="1290" width="60" height="30" as="geometry" />
        </mxCell>
        <mxCell id="5aDkIVA3FT6j9TxwKnW4-17" value="U" style="text;html=1;whiteSpace=wrap;strokeColor=none;fillColor=none;align=center;verticalAlign=middle;rounded=0;" vertex="1" parent="1">
          <mxGeometry x="1950" y="1275" width="60" height="30" as="geometry" />
        </mxCell>
        <mxCell id="5aDkIVA3FT6j9TxwKnW4-30" value="" style="shape=link;html=1;rounded=0;exitX=1;exitY=0.5;exitDx=0;exitDy=0;entryX=0;entryY=0.5;entryDx=0;entryDy=0;" edge="1" parent="1" source="MY-tYENC7k9GPu_FFXqe-133" target="5aDkIVA3FT6j9TxwKnW4-8">
          <mxGeometry relative="1" as="geometry">
            <mxPoint x="1660" y="1330" as="sourcePoint" />
            <mxPoint x="1820" y="1330" as="targetPoint" />
          </mxGeometry>
        </mxCell>
        <mxCell id="5aDkIVA3FT6j9TxwKnW4-32" value="potrosuvacka za struja" style="ellipse;whiteSpace=wrap;html=1;fontFamily=Helvetica;fontSize=11;fontColor=default;labelBackgroundColor=default;" vertex="1" parent="1">
          <mxGeometry x="2080" y="1510" width="120" height="80" as="geometry" />
        </mxCell>
        <mxCell id="5aDkIVA3FT6j9TxwKnW4-35" style="edgeStyle=orthogonalEdgeStyle;rounded=0;orthogonalLoop=1;jettySize=auto;html=1;entryX=0.25;entryY=0;entryDx=0;entryDy=0;endArrow=none;endFill=0;" edge="1" parent="1" source="5aDkIVA3FT6j9TxwKnW4-34" target="MY-tYENC7k9GPu_FFXqe-66">
          <mxGeometry relative="1" as="geometry" />
        </mxCell>
        <mxCell id="5aDkIVA3FT6j9TxwKnW4-40" style="edgeStyle=orthogonalEdgeStyle;shape=connector;rounded=0;orthogonalLoop=1;jettySize=auto;html=1;exitX=0;exitY=0;exitDx=0;exitDy=0;entryX=0.5;entryY=1;entryDx=0;entryDy=0;strokeColor=default;align=center;verticalAlign=middle;fontFamily=Helvetica;fontSize=11;fontColor=default;labelBackgroundColor=default;endArrow=none;endFill=0;" edge="1" parent="1" source="5aDkIVA3FT6j9TxwKnW4-34" target="5aDkIVA3FT6j9TxwKnW4-38">
          <mxGeometry relative="1" as="geometry" />
        </mxCell>
        <mxCell id="5aDkIVA3FT6j9TxwKnW4-41" style="edgeStyle=orthogonalEdgeStyle;shape=connector;rounded=0;orthogonalLoop=1;jettySize=auto;html=1;exitX=1;exitY=0;exitDx=0;exitDy=0;entryX=0.5;entryY=1;entryDx=0;entryDy=0;strokeColor=default;align=center;verticalAlign=middle;fontFamily=Helvetica;fontSize=11;fontColor=default;labelBackgroundColor=default;endArrow=none;endFill=0;" edge="1" parent="1" source="5aDkIVA3FT6j9TxwKnW4-34" target="5aDkIVA3FT6j9TxwKnW4-39">
          <mxGeometry relative="1" as="geometry">
            <Array as="points">
              <mxPoint x="1161" y="360" />
              <mxPoint x="1251" y="360" />
            </Array>
          </mxGeometry>
        </mxCell>
        <mxCell id="5aDkIVA3FT6j9TxwKnW4-34" value="" style="rhombus;whiteSpace=wrap;html=1;" vertex="1" parent="1">
          <mxGeometry x="1101.5" y="370" width="80" height="80" as="geometry" />
        </mxCell>
        <mxCell id="5aDkIVA3FT6j9TxwKnW4-36" value="N" style="text;html=1;whiteSpace=wrap;strokeColor=none;fillColor=none;align=center;verticalAlign=middle;rounded=0;fontFamily=Helvetica;fontSize=11;fontColor=default;labelBackgroundColor=default;" vertex="1" parent="1">
          <mxGeometry x="1130" y="440" width="60" height="30" as="geometry" />
        </mxCell>
        <mxCell id="5aDkIVA3FT6j9TxwKnW4-37" value="N" style="text;html=1;whiteSpace=wrap;strokeColor=none;fillColor=none;align=center;verticalAlign=middle;rounded=0;fontFamily=Helvetica;fontSize=11;fontColor=default;labelBackgroundColor=default;" vertex="1" parent="1">
          <mxGeometry x="1170" y="380" width="60" height="30" as="geometry" />
        </mxCell>
        <mxCell id="5aDkIVA3FT6j9TxwKnW4-38" value="Pocetna data&amp;nbsp;" style="ellipse;whiteSpace=wrap;html=1;align=center;fontFamily=Helvetica;fontSize=11;fontColor=default;labelBackgroundColor=default;" vertex="1" parent="1">
          <mxGeometry x="1070" y="270" width="100" height="40" as="geometry" />
        </mxCell>
        <mxCell id="5aDkIVA3FT6j9TxwKnW4-39" value="Krajna data" style="ellipse;whiteSpace=wrap;html=1;align=center;fontFamily=Helvetica;fontSize=11;fontColor=default;labelBackgroundColor=default;" vertex="1" parent="1">
          <mxGeometry x="1201.5" y="280" width="100" height="40" as="geometry" />
        </mxCell>
        <mxCell id="5aDkIVA3FT6j9TxwKnW4-54" style="edgeStyle=orthogonalEdgeStyle;shape=connector;rounded=0;orthogonalLoop=1;jettySize=auto;html=1;exitX=1;exitY=0.5;exitDx=0;exitDy=0;entryX=0.5;entryY=0;entryDx=0;entryDy=0;strokeColor=default;align=center;verticalAlign=middle;fontFamily=Helvetica;fontSize=11;fontColor=default;labelBackgroundColor=default;endArrow=none;endFill=0;" edge="1" parent="1" source="5aDkIVA3FT6j9TxwKnW4-42" target="5aDkIVA3FT6j9TxwKnW4-53">
          <mxGeometry relative="1" as="geometry" />
        </mxCell>
        <mxCell id="5aDkIVA3FT6j9TxwKnW4-42" value="Nastan" style="shape=ext;margin=3;double=1;whiteSpace=wrap;html=1;align=center;fontFamily=Helvetica;fontSize=11;fontColor=default;labelBackgroundColor=default;" vertex="1" parent="1">
          <mxGeometry x="1181.5" y="140" width="100" height="40" as="geometry" />
        </mxCell>
        <mxCell id="5aDkIVA3FT6j9TxwKnW4-44" value="sostaven of" style="rhombus;whiteSpace=wrap;html=1;fontFamily=Helvetica;fontSize=11;fontColor=default;labelBackgroundColor=default;" vertex="1" parent="1">
          <mxGeometry x="910" y="110" width="80" height="80" as="geometry" />
        </mxCell>
        <mxCell id="5aDkIVA3FT6j9TxwKnW4-49" value="" style="shape=link;html=1;rounded=0;strokeColor=default;align=center;verticalAlign=middle;fontFamily=Helvetica;fontSize=11;fontColor=default;labelBackgroundColor=default;edgeStyle=orthogonalEdgeStyle;endArrow=none;endFill=0;exitX=0.5;exitY=0;exitDx=0;exitDy=0;entryX=0;entryY=0.5;entryDx=0;entryDy=0;" edge="1" parent="1" source="aRnnZAHk4HtuIv6q_tbA-20" target="5aDkIVA3FT6j9TxwKnW4-44">
          <mxGeometry relative="1" as="geometry">
            <mxPoint x="1180" y="570" as="sourcePoint" />
            <mxPoint x="1340" y="570" as="targetPoint" />
          </mxGeometry>
        </mxCell>
        <mxCell id="5aDkIVA3FT6j9TxwKnW4-50" value="1" style="resizable=0;html=1;whiteSpace=wrap;align=right;verticalAlign=bottom;fontFamily=Helvetica;fontSize=11;fontColor=default;labelBackgroundColor=default;" connectable="0" vertex="1" parent="5aDkIVA3FT6j9TxwKnW4-49">
          <mxGeometry x="1" relative="1" as="geometry" />
        </mxCell>
        <mxCell id="5aDkIVA3FT6j9TxwKnW4-51" value="" style="shape=link;html=1;rounded=0;strokeColor=default;align=center;verticalAlign=middle;fontFamily=Helvetica;fontSize=11;fontColor=default;labelBackgroundColor=default;edgeStyle=orthogonalEdgeStyle;endArrow=none;endFill=0;exitX=0;exitY=0.5;exitDx=0;exitDy=0;entryX=1;entryY=0.5;entryDx=0;entryDy=0;" edge="1" parent="1" source="5aDkIVA3FT6j9TxwKnW4-42" target="5aDkIVA3FT6j9TxwKnW4-44">
          <mxGeometry relative="1" as="geometry">
            <mxPoint x="835" y="320" as="sourcePoint" />
            <mxPoint x="920" y="160" as="targetPoint" />
          </mxGeometry>
        </mxCell>
        <mxCell id="5aDkIVA3FT6j9TxwKnW4-52" value="N" style="resizable=0;html=1;whiteSpace=wrap;align=right;verticalAlign=bottom;fontFamily=Helvetica;fontSize=11;fontColor=default;labelBackgroundColor=default;" connectable="0" vertex="1" parent="5aDkIVA3FT6j9TxwKnW4-51">
          <mxGeometry x="1" relative="1" as="geometry" />
        </mxCell>
        <mxCell id="5aDkIVA3FT6j9TxwKnW4-55" style="edgeStyle=orthogonalEdgeStyle;shape=connector;rounded=0;orthogonalLoop=1;jettySize=auto;html=1;exitX=0.5;exitY=1;exitDx=0;exitDy=0;entryX=1;entryY=0.5;entryDx=0;entryDy=0;strokeColor=default;align=center;verticalAlign=middle;fontFamily=Helvetica;fontSize=11;fontColor=default;labelBackgroundColor=default;endArrow=none;endFill=0;" edge="1" parent="1" source="5aDkIVA3FT6j9TxwKnW4-53" target="MY-tYENC7k9GPu_FFXqe-125">
          <mxGeometry relative="1" as="geometry">
            <Array as="points">
              <mxPoint x="1780" y="990" />
              <mxPoint x="1075" y="990" />
            </Array>
          </mxGeometry>
        </mxCell>
        <mxCell id="5aDkIVA3FT6j9TxwKnW4-57" value="n" style="edgeLabel;html=1;align=center;verticalAlign=middle;resizable=0;points=[];fontFamily=Helvetica;fontSize=11;fontColor=default;labelBackgroundColor=default;" vertex="1" connectable="0" parent="5aDkIVA3FT6j9TxwKnW4-55">
          <mxGeometry x="-0.9757" y="11" relative="1" as="geometry">
            <mxPoint as="offset" />
          </mxGeometry>
        </mxCell>
        <mxCell id="5aDkIVA3FT6j9TxwKnW4-53" value="prezentiran" style="rhombus;whiteSpace=wrap;html=1;fontFamily=Helvetica;fontSize=11;fontColor=default;labelBackgroundColor=default;" vertex="1" parent="1">
          <mxGeometry x="1740" y="500" width="80" height="80" as="geometry" />
        </mxCell>
        <mxCell id="5aDkIVA3FT6j9TxwKnW4-56" value="n" style="text;html=1;whiteSpace=wrap;strokeColor=none;fillColor=none;align=center;verticalAlign=middle;rounded=0;fontFamily=Helvetica;fontSize=11;fontColor=default;labelBackgroundColor=default;" vertex="1" parent="1">
          <mxGeometry x="1770" y="470" width="60" height="30" as="geometry" />
        </mxCell>
        <mxCell id="5aDkIVA3FT6j9TxwKnW4-59" style="edgeStyle=orthogonalEdgeStyle;shape=connector;rounded=0;orthogonalLoop=1;jettySize=auto;html=1;exitX=0.5;exitY=1;exitDx=0;exitDy=0;entryX=0.5;entryY=0;entryDx=0;entryDy=0;strokeColor=default;align=center;verticalAlign=middle;fontFamily=Helvetica;fontSize=11;fontColor=default;labelBackgroundColor=default;endArrow=none;endFill=0;" edge="1" parent="1" source="5aDkIVA3FT6j9TxwKnW4-58" target="5aDkIVA3FT6j9TxwKnW4-42">
          <mxGeometry relative="1" as="geometry" />
        </mxCell>
        <mxCell id="5aDkIVA3FT6j9TxwKnW4-58" value="ime" style="ellipse;whiteSpace=wrap;html=1;align=center;fontFamily=Helvetica;fontSize=11;fontColor=default;labelBackgroundColor=default;" vertex="1" parent="1">
          <mxGeometry x="1201.5" y="50" width="100" height="40" as="geometry" />
        </mxCell>
      </root>
    </mxGraphModel>
  </diagram>
</mxfile>
